<?xml version="1.0" encoding="UTF-8" standalone="no"?>
<svg
   xmlns:dc="http://purl.org/dc/elements/1.1/"
   xmlns:cc="http://creativecommons.org/ns#"
   xmlns:rdf="http://www.w3.org/1999/02/22-rdf-syntax-ns#"
   xmlns:svg="http://www.w3.org/2000/svg"
   xmlns="http://www.w3.org/2000/svg"
   xmlns:sodipodi="http://sodipodi.sourceforge.net/DTD/sodipodi-0.dtd"
   xmlns:inkscape="http://www.inkscape.org/namespaces/inkscape"
   version="1.1"
   x="0px"
   y="0px"
   viewBox="0 0 35.892658 89.628998"
   enable-background="new 0 0 100 100"
   xml:space="preserve"
   id="svg60"
   sodipodi:docname="noun_Carrot_29691.svg"
   width="35.892658"
   height="89.628998"
   inkscape:version="0.92.4 (f8dce91, 2019-08-02)"><metadata
     id="metadata66"><rdf:RDF><cc:Work
         rdf:about=""><dc:format>image/svg+xml</dc:format><dc:type
           rdf:resource="http://purl.org/dc/dcmitype/StillImage" /><dc:title></dc:title></cc:Work></rdf:RDF></metadata><defs
     id="defs64" /><sodipodi:namedview
     pagecolor="#ffffff"
     bordercolor="#666666"
     borderopacity="1"
     objecttolerance="10"
     gridtolerance="10"
     guidetolerance="10"
     inkscape:pageopacity="0"
     inkscape:pageshadow="2"
     inkscape:window-width="1853"
     inkscape:window-height="1025"
     id="namedview62"
     showgrid="false"
     fit-margin-top="0"
     fit-margin-left="0"
     fit-margin-right="0"
     fit-margin-bottom="0"
     showborder="true"
     inkscape:zoom="6.752"
     inkscape:cx="17.945326"
     inkscape:cy="32.315"
     inkscape:window-x="67"
     inkscape:window-y="27"
     inkscape:window-maximized="1"
     inkscape:current-layer="svg60" /><path
     d="m 35.829326,14.115 c -0.094,-0.949 -0.845,-1.699 -1.793,-1.793 -2.916,-0.291 -5.802,0.431 -8.213,1.992 0.002,-0.119 0.017,-0.237 0.017,-0.357 0,-5.25 -2.332,-10.172 -6.397,-13.504 -0.736,-0.604 -1.799,-0.604 -2.535,0 -4.066,3.333 -6.398,8.255 -6.398,13.504 0,0.233 0.024,0.463 0.033,0.695 -2.5020001,-1.787 -5.5730001,-2.64 -8.6870001,-2.329 -0.94799996,0.094 -1.69899996,0.845 -1.79299996,1.793 -0.38,3.835 0.96299996,7.595 3.68399996,10.315 1.324,1.324 2.893,2.309 4.599,2.94 -2.816,2.596 -4.593,6.302 -4.593,10.424 0,4.189 2.263,17.697 4.745,31.458 -10e-4,0.025 -0.007,0.048 -0.007,0.073 0,0.28 0.059,0.547 0.163,0.789 0.569,3.145 1.146,6.293 1.7090001,9.337 0.309,1.674 0.539,2.917 0.653,3.564 0.98,5.531 3.284,6.613 6.932,6.613 3.736,0 6.069,-1.089 6.938,-6.653 0.166,-1.062 0.68,-3.874 1.328,-7.434 2.869,-15.724 5.929,-32.905 5.929,-37.748 0,-4.122 -1.777,-7.828 -4.593,-10.424 1.706,-0.632 3.274,-1.616 4.599,-2.94 2.717,-2.719 4.06,-6.479 3.68,-10.315 z m -17.655,-9.388 c 2.347,2.485 3.665,5.765 3.665,9.229 0,3.436 -1.297,6.708 -3.65,9.211 -0.005,0.005 -0.01,0.011 -0.015,0.016 -2.364,-2.506 -3.666,-5.781 -3.666,-9.227 0,-3.464 1.319,-6.744 3.666,-9.229 z M 4.0463259,16.306 c 2.001,0.207 3.855,1.086 5.296,2.527 1.4410001,1.442 2.3200001,3.308 2.5280001,5.296 -2.0020001,-0.208 -3.8550001,-1.086 -5.2970001,-2.528 -1.441,-1.44 -2.319,-3.306 -2.527,-5.295 z M 28.139326,37.795 c 0,4.886 -3.814,25.796 -5.863,37.03 -0.68,3.728 -1.172,6.421 -1.345,7.534 -0.51,3.27 -0.986,3.27 -2.986,3.27 -1.991,0 -2.405,0 -2.992,-3.311 -0.116,-0.654 -0.348,-1.907 -0.66,-3.594 -0.356,-1.925 -0.83,-4.491 -1.359,-7.399 h 4.899 c 1.104,0 2,-0.896 2,-2 0,-1.104 -0.896,-2 -2,-2 h -5.622 c -0.296,-1.65 -0.6,-3.36 -0.904,-5.092 h 6.526 c 1.104,0 2,-0.896 2,-2 0,-1.104 -0.896,-2 -2,-2 h -7.221 c -0.309,-1.8 -0.608,-3.586 -0.8920001,-5.318 h 8.1130001 c 1.104,0 2,-0.896 2,-2 0,-1.104 -0.896,-2 -2,-2 H 9.0823259 c -0.787,-5.077 -1.33,-9.251 -1.33,-11.121 0,-5.621 4.5730001,-10.194 10.1940001,-10.194 5.621,0 10.193,4.573 10.193,10.195 z m 1.178,-16.193 c -1.441,1.441 -3.295,2.32 -5.297,2.527 0.208,-1.988 1.087,-3.854 2.528,-5.296 1.44,-1.441 3.295,-2.32 5.296,-2.527 -0.208,1.989 -1.086,3.855 -2.527,5.296 z"
     id="path58"
     inkscape:connector-curvature="0" /></svg>